{
  "accessors": [
    {
      "bufferView": 2,
      "componentType": 5126,
      "count": 65532,
      "max": [
        7.390277862548828,
        8.694668769836426,
        7.022626876831055
      ],
      "min": [
        0.04780101776123047,
        0.5924780368804932,
        0.3118000328540802
      ],
      "type": "VEC3"
    },
    {
      "bufferView": 2,
      "byteOffset": 786384,
      "componentType": 5126,
      "count": 65532,
      "max": [
        0.9999672174453735,
        0.9998774528503418,
        0.9995042681694031
      ],
      "min": [
        -0.9999902248382568,
        -0.9998548626899719,
        -0.9999989867210388
      ],
      "type": "VEC3"
    },
    {
      "bufferView": 1,
      "componentType": 5126,
      "count": 65532,
      "max": [
        0.9946600198745728,
        0.9963160157203674
      ],
      "min": [
        0.06321500241756439,
        0.0036959999706596136
      ],
      "type": "VEC2"
    },
    {
      "bufferView": 0,
      "componentType": 5125,
      "count": 328902,
      "type": "SCALAR"
    },
    {
      "bufferView": 2,
      "byteOffset": 1572768,
      "componentType": 5126,
      "count": 65532,
      "max": [
        7.368958950042725,
        8.68329906463623,
        6.892647743225098
      ],
      "min": [
        0.14602184295654297,
        3.0394649505615234,
        0.011990994215011597
      ],
      "type": "VEC3"
    },
    {
      "bufferView": 2,
      "byteOffset": 2359152,
      "componentType": 5126,
      "count": 65532,
      "max": [
        0.9999076128005981,
        0.9998773336410522,
        0.9996119737625122
      ],
      "min": [
        -0.9999902248382568,
        -0.9999380111694336,
        -0.9999989867210388
      ],
      "type": "VEC3"
    },
    {
      "bufferView": 1,
      "byteOffset": 524256,
      "componentType": 5126,
      "count": 65532,
      "max": [
        0.9954149723052979,
        1.0072050094604492
      ],
      "min": [
        0.0036299999337643385,
        0.003441999899223447
      ],
      "type": "VEC2"
    },
    {
      "bufferView": 0,
      "byteOffset": 1315608,
      "componentType": 5125,
      "count": 310812,
      "type": "SCALAR"
    },
    {
      "bufferView": 2,
      "byteOffset": 3145536,
      "componentType": 5126,
      "count": 65532,
      "max": [
        7.393601894378662,
        8.710248947143555,
        7.020855903625488
      ],
      "min": [
        0.0,
        3.774683952331543,
        0.16190502047538757
      ],
      "type": "VEC3"
    },
    {
      "bufferView": 2,
      "byteOffset": 3931920,
      "componentType": 5126,
      "count": 65532,
      "max": [
        0.999999463558197,
        0.999999463558197,
        0.9998063445091248
      ],
      "min": [
        -0.9999605417251587,
        -0.9999322295188904,
        -0.9999445676803589
      ],
      "type": "VEC3"
    },
    {
      "bufferView": 1,
      "byteOffset": 1048512,
      "componentType": 5126,
      "count": 65532,
      "max": [
        0.995864987373352,
        0.9966890215873718
      ],
      "min": [
        0.00572500005364418,
        0.006380000151693821
      ],
      "type": "VEC2"
    },
    {
      "bufferView": 0,
      "byteOffset": 2558856,
      "componentType": 5125,
      "count": 308958,
      "type": "SCALAR"
    },
    {
      "bufferView": 2,
      "byteOffset": 4718304,
      "componentType": 5126,
      "count": 65532,
      "max": [
        6.112539291381836,
        7.580140113830566,
        5.3190598487854
      ],
      "min": [
        1.580988883972168,
        0.43206000328063965,
        0.0
      ],
      "type": "VEC3"
    },
    {
      "bufferView": 2,
      "byteOffset": 5504688,
      "componentType": 5126,
      "count": 65532,
      "max": [
        0.9999737739562988,
        0.99992436170578,
        0.9978695511817932
      ],
      "min": [
        -0.9999611377716064,
        -0.9994557499885559,
        -0.9998494982719421
      ],
      "type": "VEC3"
    },
    {
      "bufferView": 1,
      "byteOffset": 1572768,
      "componentType": 5126,
      "count": 65532,
      "max": [
        0.9932609796524048,
        0.9967150092124939
      ],
      "min": [
        0.00533400010317564,
        0.003800000064074993
      ],
      "type": "VEC2"
    },
    {
      "bufferView": 0,
      "byteOffset": 3794688,
      "componentType": 5125,
      "count": 335721,
      "type": "SCALAR"
    },
    {
      "bufferView": 2,
      "byteOffset": 6291072,
      "componentType": 5126,
      "count": 65532,
      "max": [
        5.566652297973633,
        3.728775978088379,
        4.17556095123291
      ],
      "min": [
        2.092421054840088,
        0.0,
        0.38965699076652527
      ],
      "type": "VEC3"
    },
    {
      "bufferView": 2,
      "byteOffset": 7077456,
      "componentType": 5126,
      "count": 65532,
      "max": [
        0.9999866485595703,
        0.998989999294281,
        0.999983012676239
      ],
      "min": [
        -1.0,
        -0.9998048543930054,
        -0.9999759793281555
      ],
      "type": "VEC3"
    },
    {
      "bufferView": 1,
      "byteOffset": 2097024,
      "componentType": 5126,
      "count": 65532,
      "max": [
        0.9906309843063354,
        0.9992889761924744
      ],
      "min": [
        0.005073999986052513,
        0.0032649999484419823
      ],
      "type": "VEC2"
    },
    {
      "bufferView": 0,
      "byteOffset": 5137572,
      "componentType": 5125,
      "count": 332259,
      "type": "SCALAR"
    },
    {
      "bufferView": 2,
      "byteOffset": 7863840,
      "componentType": 5126,
      "count": 65532,
      "max": [
        7.292047023773193,
        8.35363483428955,
        7.015462875366211
      ],
      "min": [
        0.30576419830322266,
        0.007582902908325195,
        0.06765002012252808
      ],
      "type": "VEC3"
    },
    {
      "bufferView": 2,
      "byteOffset": 8650224,
      "componentType": 5126,
      "count": 65532,
      "max": [
        0.9999292492866516,
        0.9999656677246094,
        0.999983012676239
      ],
      "min": [
        -0.9999363422393799,
        -0.9999896287918091,
        -0.999962568283081
      ],
      "type": "VEC3"
    },
    {
      "bufferView": 1,
      "byteOffset": 2621280,
      "componentType": 5126,
      "count": 65532,
      "max": [
        0.9939749836921692,
        0.9988750219345093
      ],
      "min": [
        0.0035019998904317617,
        0.003693999955430627
      ],
      "type": "VEC2"
    },
    {
      "bufferView": 0,
      "byteOffset": 6466608,
      "componentType": 5125,
      "count": 276219,
      "type": "SCALAR"
    },
    {
      "bufferView": 2,
      "byteOffset": 9436608,
      "componentType": 5126,
      "count": 40963,
      "max": [
        7.389273166656494,
        9.04279899597168,
        6.788859844207764
      ],
      "min": [
        0.057084083557128906,
        0.011795997619628906,
        0.0
      ],
      "type": "VEC3"
    },
    {
      "bufferView": 2,
      "byteOffset": 9928164,
      "componentType": 5126,
      "count": 40963,
      "max": [
        0.9999867677688599,
        0.9999808669090271,
        0.999983012676239
      ],
      "min": [
        -0.9998791217803955,
        -0.9996065497398376,
        -0.9998970031738281
      ],
      "type": "VEC3"
    },
    {
      "bufferView": 1,
      "byteOffset": 3145536,
      "componentType": 5126,
      "count": 40963,
      "max": [
        0.9906520247459412,
        0.997871994972229
      ],
      "min": [
        0.005576000083237886,
        0.0035520000383257866
      ],
      "type": "VEC2"
    },
    {
      "bufferView": 0,
      "byteOffset": 7571484,
      "componentType": 5125,
      "count": 140229,
      "type": "SCALAR"
    }
  ],
  "asset": {
    "extras": {
      "author": "Thomas Flynn (https://sketchfab.com/nebulousflynn)",
      "license": "CC-BY-4.0 (http://creativecommons.org/licenses/by/4.0/)",
      "source": "https://sketchfab.com/3d-models/figurehead-of-hms-thames-1823-incomplete-b068f617b21e4a9ebc43d9433be05c1a",
      "title": "Figurehead of HMS Thames, 1823 [incomplete]"
    },
    "generator": "Sketchfab-12.65.0",
    "version": "2.0"
  },
  "bufferViews": [
    {
      "buffer": 0,
      "byteLength": 8132400,
      "name": "floatBufferViews",
      "target": 34963
    },
    {
      "buffer": 0,
      "byteLength": 3473240,
      "byteOffset": 8132400,
      "byteStride": 8,
      "name": "floatBufferViews",
      "target": 34962
    },
    {
      "buffer": 0,
      "byteLength": 10419720,
      "byteOffset": 11605640,
      "byteStride": 12,
      "name": "floatBufferViews",
      "target": 34962
    }
  ],
  "buffers": [
    {
      "byteLength": 22025360,
      "uri": "scene.bin"
    }
  ],
  "images": [
    {
      "uri": "textures/material_0_baseColor.jpeg"
    },
    {
      "uri": "textures/material_0_metallicRoughness.png"
    }
  ],
  "materials": [
    {
      "name": "material_0",
      "occlusionTexture": {
        "index": 1,
        "strength": 0.1
      },
      "pbrMetallicRoughness": {
        "baseColorTexture": {
          "index": 0
        },
        "metallicFactor": 0.0,
        "metallicRoughnessTexture": {
          "index": 1
        },
        "roughnessFactor": 0.39
      }
    }
  ],
  "meshes": [
    {
      "name": "Object_0",
      "primitives": [
        {
          "attributes": {
            "NORMAL": 1,
            "POSITION": 0,
            "TEXCOORD_0": 2
          },
          "indices": 3,
          "material": 0,
          "mode": 4
        }
      ]
    },
    {
      "name": "Object_1",
      "primitives": [
        {
          "attributes": {
            "NORMAL": 5,
            "POSITION": 4,
            "TEXCOORD_0": 6
          },
          "indices": 7,
          "material": 0,
          "mode": 4
        }
      ]
    },
    {
      "name": "Object_2",
      "primitives": [
        {
          "attributes": {
            "NORMAL": 9,
            "POSITION": 8,
            "TEXCOORD_0": 10
          },
          "indices": 11,
          "material": 0,
          "mode": 4
        }
      ]
    },
    {
      "name": "Object_3",
      "primitives": [
        {
          "attributes": {
            "NORMAL": 13,
            "POSITION": 12,
            "TEXCOORD_0": 14
          },
          "indices": 15,
          "material": 0,
          "mode": 4
        }
      ]
    },
    {
      "name": "Object_4",
      "primitives": [
        {
          "attributes": {
            "NORMAL": 17,
            "POSITION": 16,
            "TEXCOORD_0": 18
          },
          "indices": 19,
          "material": 0,
          "mode": 4
        }
      ]
    },
    {
      "name": "Object_5",
      "primitives": [
        {
          "attributes": {
            "NORMAL": 21,
            "POSITION": 20,
            "TEXCOORD_0": 22
          },
          "indices": 23,
          "material": 0,
          "mode": 4
        }
      ]
    },
    {
      "name": "Object_6",
      "primitives": [
        {
          "attributes": {
            "NORMAL": 25,
            "POSITION": 24,
            "TEXCOORD_0": 26
          },
          "indices": 27,
          "material": 0,
          "mode": 4
        }
      ]
    }
  ],
  "nodes": [
    {
      "children": [
        1
      ],
      "matrix": [
        1.0,
        3.5707495248565405e-32,
        -1.6081226229577292e-16,
        0.0,
        2.465190328815662e-32,
        -1.0,
        0.0,
        0.0,
        -1.6081226229577292e-16,
        0.0,
        -1.0,
        0.0,
        8.881784197001252e-16,
        5.657257556915282,
        2.039160728454591,
        1.0
      ],
      "name": "Sketchfab_model"
    },
    {
      "children": [
        2,
        3,
        4,
        5,
        6,
        7,
        8
      ],
      "matrix": [
        1.0,
        0.0,
        0.0,
        0.0,
        0.0,
        1.0,
        0.0,
        0.0,
        0.0,
        0.0,
        1.0,
        0.0,
        -7.9390950202941895,
        -2.712347984313965,
        0.336901992559433,
        1.0
      ],
      "name": "figurehead-hms-thames.obj.cleaner.gles"
    },
    {
      "mesh": 0,
      "name": "Object_2"
    },
    {
      "mesh": 1,
      "name": "Object_3"
    },
    {
      "mesh": 2,
      "name": "Object_4"
    },
    {
      "mesh": 3,
      "name": "Object_5"
    },
    {
      "mesh": 4,
      "name": "Object_6"
    },
    {
      "mesh": 5,
      "name": "Object_7"
    },
    {
      "mesh": 6,
      "name": "Object_8"
    }
  ],
  "samplers": [
    {
      "magFilter": 9729,
      "minFilter": 9987,
      "wrapS": 10497,
      "wrapT": 10497
    }
  ],
  "scene": 0,
  "scenes": [
    {
      "name": "Sketchfab_Scene",
      "nodes": [
        0
      ]
    }
  ],
  "textures": [
    {
      "sampler": 0,
      "source": 0
    },
    {
      "sampler": 0,
      "source": 1
    }
  ]
}
