<svg width="872" height="526" xmlns="http://www.w3.org/2000/svg" xmlns:xlink="http://www.w3.org/1999/xlink" version="1.1" baseProfile="full" viewBox="0 0 872 526">
<rect width="872" height="526" x="0" y="0" id="0" fill="none"></rect>
<polyline points="561 46.5 568.5 33.5 583.5 33.5" fill="none" stroke="#5470c6"></polyline>
<polyline points="666 263 701 263 716 263" fill="none" stroke="#91cc75"></polyline>
<polyline points="521 410.2 568.5 492.5 583.5 492.5" fill="none" stroke="#fac858"></polyline>
<polyline points="361 392.9 303.5 492.5 288.5 492.5" fill="none" stroke="#ee6666"></polyline>
<polyline points="206 263 171 263 156 263" fill="none" stroke="#73c0de"></polyline>
<polyline points="331 81.1 303.5 33.5 288.5 33.5" fill="none" stroke="#3ba272"></polyline>
<path d="M436 21.1323A8 8 0 0 1 444.2645 13.1366A250 250 0 0 1 648.2558 130.9111A8 8 0 0 1 645.4636 142.0661L485.7494 234.2772A8 8 0 0 1 475.4391 232.2664A50 50 0 0 0 442.8966 213.4779A8 8 0 0 1 436 205.5544Z" fill="rgb(84,112,198)"></path>
<path d="M628.1328 152.0721A8 8 0 0 1 639.2006 155.2526A230 230 0 0 1 639.2006 370.7474A8 8 0 0 1 628.1328 373.9279L485.7494 291.7228A8 8 0 0 1 482.3357 281.7885A50 50 0 0 0 482.3357 244.2115A8 8 0 0 1 485.7494 234.2772Z" fill="rgb(145,204,117)"></path>
<path d="M576.1249 343.9012A8 8 0 0 1 578.8472 355.1666A170 170 0 0 1 444.3951 432.7926A8 8 0 0 1 436 424.8023L436 320.4456A8 8 0 0 1 442.8966 312.5221A50 50 0 0 0 475.4391 293.7336A8 8 0 0 1 485.7494 291.7228Z" fill="rgb(250,200,88)"></path>
<path d="M436 404.7745A8 8 0 0 1 427.5493 412.7618A150 150 0 0 1 310.5279 345.1994A8 8 0 0 1 313.2197 333.8872L386.2506 291.7228A8 8 0 0 1 396.5609 293.7336A50 50 0 0 0 429.1034 312.5221A8 8 0 0 1 436 320.4456Z" fill="rgb(238,102,102)"></path>
<path d="M243.8672 373.9279A8 8 0 0 1 232.7994 370.7474A230 230 0 0 1 232.7994 155.2526A8 8 0 0 1 243.8672 152.0721L386.2506 234.2772A8 8 0 0 1 389.6643 244.2115A50 50 0 0 0 389.6643 281.7885A8 8 0 0 1 386.2506 291.7228Z" fill="#73c0de"></path>
<path d="M261.2001 162.0792A8 8 0 0 1 258.4358 150.8798A210 210 0 0 1 427.6832 53.1648A8 8 0 0 1 436 61.1585L436 205.5544A8 8 0 0 1 429.1034 213.4779A50 50 0 0 0 396.5609 232.2664A8 8 0 0 1 386.2506 234.2772Z" fill="rgb(59,162,114)"></path>
<text dominant-baseline="central" text-anchor="start" style="font-size:12px;font-family:Microsoft YaHei;" transform="translate(588.5 33.5033)" fill="#333" stroke="rgb(255,255,255)" stroke-width="2" paint-order="stroke" stroke-miterlimit="2">Python</text>
<text dominant-baseline="central" text-anchor="start" style="font-size:12px;font-family:Microsoft YaHei;" transform="translate(721 263)" fill="#333" stroke="rgb(255,255,255)" stroke-width="2" paint-order="stroke" stroke-miterlimit="2">Javascript</text>
<text dominant-baseline="central" text-anchor="start" style="font-size:12px;font-family:Microsoft YaHei;" transform="translate(588.5 492.4967)" fill="#333" stroke="rgb(255,255,255)" stroke-width="2" paint-order="stroke" stroke-miterlimit="2">Php</text>
<text dominant-baseline="central" text-anchor="end" style="font-size:12px;font-family:Microsoft YaHei;" transform="translate(283.5 492.4967)" fill="#333" stroke="rgb(255,255,255)" stroke-width="2" paint-order="stroke" stroke-miterlimit="2">C#</text>
<text dominant-baseline="central" text-anchor="end" style="font-size:12px;font-family:Microsoft YaHei;" transform="translate(151 263)" fill="#333" stroke="rgb(255,255,255)" stroke-width="2" paint-order="stroke" stroke-miterlimit="2">Java</text>
<text dominant-baseline="central" text-anchor="end" style="font-size:12px;font-family:Microsoft YaHei;" transform="translate(283.5 33.5033)" fill="#333" stroke="rgb(255,255,255)" stroke-width="2" paint-order="stroke" stroke-miterlimit="2">SQL</text>
<path d="M-5 -5l420.8613 0l0 24l-420.8613 0Z" transform="translate(230.5693 507)" fill="rgb(0,0,0)" fill-opacity="0" stroke="#ccc" stroke-width="0"></path>
<path d="M3.5 0L21.5 0A3.5 3.5 0 0 1 25 3.5L25 10.5A3.5 3.5 0 0 1 21.5 14L3.5 14A3.5 3.5 0 0 1 0 10.5L0 3.5A3.5 3.5 0 0 1 3.5 0" transform="translate(230.5693 507)" fill="#5470c6"></path>
<text dominant-baseline="central" text-anchor="start" style="font-size:12px;font-family:Microsoft YaHei;" x="30" y="7" transform="translate(230.5693 507)" fill="#333">Python</text>
<path d="M3.5 0L21.5 0A3.5 3.5 0 0 1 25 3.5L25 10.5A3.5 3.5 0 0 1 21.5 14L3.5 14A3.5 3.5 0 0 1 0 10.5L0 3.5A3.5 3.5 0 0 1 3.5 0" transform="translate(311.1807 507)" fill="#91cc75"></path>
<text dominant-baseline="central" text-anchor="start" style="font-size:12px;font-family:Microsoft YaHei;" x="30" y="7" transform="translate(311.1807 507)" fill="#333">Javascript</text>
<path d="M3.5 0L21.5 0A3.5 3.5 0 0 1 25 3.5L25 10.5A3.5 3.5 0 0 1 21.5 14L3.5 14A3.5 3.5 0 0 1 0 10.5L0 3.5A3.5 3.5 0 0 1 3.5 0" transform="translate(406.5752 507)" fill="#fac858"></path>
<text dominant-baseline="central" text-anchor="start" style="font-size:12px;font-family:Microsoft YaHei;" x="30" y="7" transform="translate(406.5752 507)" fill="#333">Php</text>
<path d="M3.5 0L21.5 0A3.5 3.5 0 0 1 25 3.5L25 10.5A3.5 3.5 0 0 1 21.5 14L3.5 14A3.5 3.5 0 0 1 0 10.5L0 3.5A3.5 3.5 0 0 1 3.5 0" transform="translate(468.9697 507)" fill="#ee6666"></path>
<text dominant-baseline="central" text-anchor="start" style="font-size:12px;font-family:Microsoft YaHei;" x="30" y="7" transform="translate(468.9697 507)" fill="#333">C#</text>
<path d="M3.5 0L21.5 0A3.5 3.5 0 0 1 25 3.5L25 10.5A3.5 3.5 0 0 1 21.5 14L3.5 14A3.5 3.5 0 0 1 0 10.5L0 3.5A3.5 3.5 0 0 1 3.5 0" transform="translate(524.6553 507)" fill="#73c0de"></path>
<text dominant-baseline="central" text-anchor="start" style="font-size:12px;font-family:Microsoft YaHei;" x="30" y="7" transform="translate(524.6553 507)" fill="#333">Java</text>
<path d="M3.5 0L21.5 0A3.5 3.5 0 0 1 25 3.5L25 10.5A3.5 3.5 0 0 1 21.5 14L3.5 14A3.5 3.5 0 0 1 0 10.5L0 3.5A3.5 3.5 0 0 1 3.5 0" transform="translate(588.5674 507)" fill="#3ba272"></path>
<text dominant-baseline="central" text-anchor="start" style="font-size:12px;font-family:Microsoft YaHei;" x="30" y="7" transform="translate(588.5674 507)" fill="#333">SQL</text>
</svg>